<?xml version="1.0" standalone="no"?>
<svg xmlns:xlink="http://www.w3.org/1999/xlink" id="wave" style="transform:rotate(180deg); transition: 0.3s" viewBox="0 0 1440 100" version="1.1" xmlns="http://www.w3.org/2000/svg"><defs><linearGradient id="sw-gradient-0" x1="0" x2="0" y1="1" y2="0"><stop stop-color="rgba(228, 226, 213, 1)" offset="0%"/><stop stop-color="rgba(228, 226, 213, 1)" offset="100%"/></linearGradient></defs><path style="transform:translate(0, 0px); opacity:1" fill="url(#sw-gradient-0)" d="M0,70L26.7,61.7C53.3,53,107,37,160,31.7C213.3,27,267,33,320,43.3C373.3,53,427,67,480,73.3C533.3,80,587,80,640,75C693.3,70,747,60,800,60C853.3,60,907,70,960,71.7C1013.3,73,1067,67,1120,56.7C1173.3,47,1227,33,1280,33.3C1333.3,33,1387,47,1440,43.3C1493.3,40,1547,20,1600,23.3C1653.3,27,1707,53,1760,63.3C1813.3,73,1867,67,1920,61.7C1973.3,57,2027,53,2080,50C2133.3,47,2187,43,2240,50C2293.3,57,2347,73,2400,73.3C2453.3,73,2507,57,2560,53.3C2613.3,50,2667,60,2720,63.3C2773.3,67,2827,63,2880,56.7C2933.3,50,2987,40,3040,30C3093.3,20,3147,10,3200,20C3253.3,30,3307,60,3360,75C3413.3,90,3467,90,3520,81.7C3573.3,73,3627,57,3680,43.3C3733.3,30,3787,20,3813,15L3840,10L3840,100L3813.3,100C3786.7,100,3733,100,3680,100C3626.7,100,3573,100,3520,100C3466.7,100,3413,100,3360,100C3306.7,100,3253,100,3200,100C3146.7,100,3093,100,3040,100C2986.7,100,2933,100,2880,100C2826.7,100,2773,100,2720,100C2666.7,100,2613,100,2560,100C2506.7,100,2453,100,2400,100C2346.7,100,2293,100,2240,100C2186.7,100,2133,100,2080,100C2026.7,100,1973,100,1920,100C1866.7,100,1813,100,1760,100C1706.7,100,1653,100,1600,100C1546.7,100,1493,100,1440,100C1386.7,100,1333,100,1280,100C1226.7,100,1173,100,1120,100C1066.7,100,1013,100,960,100C906.7,100,853,100,800,100C746.7,100,693,100,640,100C586.7,100,533,100,480,100C426.7,100,373,100,320,100C266.7,100,213,100,160,100C106.7,100,53,100,27,100L0,100Z"/></svg>